<?xml version="1.0" encoding="UTF-8" standalone="no"?>
<svg
   version="1.1"
   id="Ebene_1"
   x="0px"
   y="0px"
   viewBox="1558.3 -358.3 283.5 283.5"
   xml:space="preserve"
   xmlns:inkscape="http://www.inkscape.org/namespaces/inkscape"
   xmlns:sodipodi="http://sodipodi.sourceforge.net/DTD/sodipodi-0.dtd"
   xmlns="http://www.w3.org/2000/svg"
   xmlns:svg="http://www.w3.org/2000/svg"><defs
   id="defs4" /><sodipodi:namedview
   id="namedview4"
   borderopacity="0.25"
   inkscape:showpageshadow="2"
   inkscape:pageopacity="0.0"
   inkscape:pagecheckerboard="0"
   inkscape:deskcolor="#d1d1d1"
   inkscape:zoom="0.091710758"
   inkscape:cx="-38.163462"
   inkscape:cy="119.94231"
   inkscape:window-width="1424"
   inkscape:window-height="647"
   inkscape:window-x="0"
   inkscape:window-y="33"
   inkscape:window-maximized="0"
   inkscape:current-layer="Ebene_1" />
<path
   fill="#AA3A50"
   d="M1720.7-220.6c7.3-3.1,11.7-8.9,11.7-17c0-14.9-10.5-21.9-28.6-21.9h-10.2v16h7.4c7,0,10.8,2.3,10.8,8  c0,5.5-4.1,7.9-11.2,7.9h-7v16.2h11.8c7.9,0,12.2,2.7,12.2,8.7c0,5.5-3.6,8.3-11.3,8.3h-18.4v-65.1h-0.1l-20,16v65.2h41.4  c19.1,0,29.7-8.3,29.7-22C1738.9-211.8,1732.1-218.2,1720.7-220.6L1720.7-220.6z"
   id="path3"
   style="fill:#ffffffff" />
<path
   fill="#AA3A50"
   d="M1700-302.7c-47.7,0-86.2,38.6-86.2,86.2c0,47.7,38.6,86.1,86.2,86.1c47.7,0,86.2-38.6,86.2-86.1  S1747.5-302.7,1700-302.7L1700-302.7z M1756.4-177.9v17.7h-17.6c-11,7.7-24.4,12.2-38.9,12.2c-37.8,0-68.3-30.6-68.3-68.3  c0-37.8,30.6-68.3,68.3-68.3c37.8,0,68.3,30.6,68.3,68.3C1768.3-202.2,1763.8-189,1756.4-177.9L1756.4-177.9z"
   id="path4"
   style="fill:#ffffff" />
</svg>
